<svg width="70" height="49" viewBox="0 0 70 49" fill="none" xmlns="http://www.w3.org/2000/svg">
<path d="M0.5 3C0.5 1.61929 1.61929 0.5 3 0.5H67C68.3807 0.5 69.5 1.61929 69.5 3V46C69.5 47.3807 68.3807 48.5 67 48.5H3C1.61929 48.5 0.5 47.3807 0.5 46V3Z" fill="white" stroke="#E6E7E8"/>
<g clip-path="url(#clip0_7942_21680)">
<path d="M14.8854 22.1335C14.5895 21.9558 14.2615 21.8299 13.9026 21.7779C13.5808 21.7312 13.2403 21.735 12.892 21.8109C12.5969 21.8751 12.3023 21.9962 12.0404 22.1613C11.6502 22.4073 11.3241 22.758 11.1092 23.1865C10.883 23.6376 10.8024 24.1835 10.8772 24.7645C10.9365 25.2246 11.135 25.6367 11.4057 25.9697C11.99 26.6882 12.972 27.0658 13.8973 26.918C14.6461 26.7984 15.2981 26.3846 15.6871 25.8225C16.0659 25.2753 16.1929 24.5872 16.0936 23.9187C15.9794 23.1498 15.5195 22.5145 14.8854 22.1335Z" fill="#EB3223"/>
<path d="M20.6968 27.3282C20.5504 27.4614 20.3511 27.5517 20.1285 27.5517C19.6696 27.5517 19.2976 27.194 19.2976 26.7527L19.2885 26.5741C19.2818 26.0287 19.2251 25.5248 19.1626 25.0339C19.0859 24.4314 18.9927 23.854 18.8769 23.3085C18.5344 21.6946 18.0471 20.3788 17.6535 19.4968C17.5636 19.2952 17.4796 19.1002 17.4003 18.9432C17.3398 18.8255 17.2982 18.7311 17.2892 18.6546C17.277 18.5499 17.3164 18.4774 17.3652 18.4134C17.425 18.3348 17.5319 18.2893 17.6358 18.2892C17.7709 18.2889 17.977 18.3549 17.977 18.3549C18.1512 18.4077 18.2842 18.4618 18.428 18.5473C18.6576 18.6835 18.8839 18.8596 19.0367 19.0737C19.1334 19.2093 19.2226 19.3426 19.2894 19.4872C19.3583 19.6362 19.4247 19.7836 19.4905 19.9344C19.6465 20.2915 19.7882 20.6583 19.9278 21.0231C20.017 21.256 20.0966 21.4902 20.1769 21.7277C20.2192 21.8528 20.2667 21.9875 20.3035 22.1137C20.354 22.2872 20.4146 22.4735 20.4673 22.6597C20.4935 22.7521 20.5247 22.8642 20.5467 22.9664C20.591 23.1721 20.6209 23.3766 20.6562 23.5754C20.7356 24.0227 20.7898 24.4771 20.8313 24.8705C20.9032 25.552 20.931 26.1065 20.9434 26.5273C20.9447 26.5736 20.948 26.7066 20.948 26.7581C20.948 26.9688 20.855 27.1845 20.6968 27.3282ZM18.1156 27.6291C17.9554 27.7835 17.7163 27.8708 17.5299 27.8708C17.3009 27.8708 17.1073 27.7962 16.9616 27.6839C16.8684 27.6121 16.7943 27.5272 16.7412 27.4255C16.6825 27.304 16.5654 27.3243 16.5101 27.3743C16.4482 27.4308 16.3855 27.4791 16.3196 27.5336C16.1102 27.7068 15.88 27.8676 15.6274 27.9992C15.1858 28.2293 14.6944 28.3849 14.2275 28.4574C13.8812 28.5113 13.5327 28.5208 13.1917 28.4937C12.54 28.4419 11.9124 28.2504 11.3551 27.9366C10.8026 27.6255 10.3195 27.1843 9.95611 26.6739C9.63071 26.2168 9.40219 25.6778 9.29209 25.1228C9.11786 24.2444 9.24713 23.3897 9.59295 22.6475C9.97676 21.8236 10.6344 21.1327 11.472 20.6952C11.8993 20.472 12.3729 20.3175 12.882 20.2393C14.13 20.0477 15.3367 20.4187 16.2335 21.0916C16.6044 21.3698 16.9255 21.7088 17.1689 22.0804C17.2702 22.2174 17.5037 22.5276 17.7653 23.3739C17.9199 23.8742 18.0896 24.5829 18.2224 25.4844C18.2724 25.8235 18.3027 26.053 18.341 26.5092C18.3478 26.5895 18.3727 26.9932 18.3727 27.0311C18.3727 27.2793 18.2614 27.4887 18.1156 27.6291ZM15.5528 17.1152C11.0243 16.4616 6.80222 19.4619 6.12251 23.8165C5.44285 28.1711 8.56287 32.2311 13.0914 32.8847C17.6199 33.5383 21.842 30.538 22.5216 26.1834C23.2014 21.8288 20.0813 17.7688 15.5528 17.1152Z" fill="#EB3223"/>
<path d="M29.2672 27.3233C29.074 27.5092 28.834 27.5996 28.534 27.5996H27.3093V25.6636H28.534C28.8339 25.6636 29.0738 25.7541 29.2693 25.9419C29.4614 26.1217 29.5547 26.3459 29.5547 26.6272C29.5547 26.9145 29.4614 27.1416 29.2672 27.3233ZM28.534 24.3865H25.9348V31.0635H27.3093V28.8768H28.534C29.2285 28.8768 29.8085 28.6642 30.2593 28.2439C30.7037 27.8231 30.9291 27.2792 30.9291 26.6272C30.9291 25.9813 30.7037 25.4403 30.258 25.0183C29.8084 24.5991 29.2284 24.3865 28.534 24.3865Z" fill="#EB3223"/>
<path d="M49.0193 29.7927C48.2941 29.7927 47.704 29.2253 47.704 28.5278C47.704 27.8303 48.2941 27.2629 49.0193 27.2629C49.7446 27.2629 50.3347 27.8303 50.3347 28.5278C50.3347 29.2253 49.7446 29.7927 49.0193 29.7927ZM49.0193 25.9922C47.5654 25.9922 46.3826 27.1296 46.3826 28.5278C46.3826 29.9261 47.5654 31.0635 49.0193 31.0635C49.4982 31.0635 49.9472 30.9395 50.3347 30.724V31.0626H51.6561V28.4893H51.6552C51.6336 27.1089 50.4599 25.9922 49.0193 25.9922Z" fill="#EB3223"/>
<path d="M45.9522 29.7863H43.7105V24.3865H42.3359V31.0635H47.0095C46.5505 30.7358 46.1836 30.2958 45.9522 29.7863Z" fill="#EB3223"/>
<path d="M33.7816 29.7927C33.0564 29.7927 32.4663 29.2253 32.4663 28.5278C32.4663 27.8303 33.0564 27.2629 33.7816 27.2629C34.5069 27.2629 35.097 27.8303 35.097 28.5278C35.097 29.2253 34.5069 29.7927 33.7816 29.7927ZM33.7816 25.9922C32.3277 25.9922 31.1448 27.1296 31.1448 28.5278C31.1448 29.9261 32.3277 31.0635 33.7816 31.0635C34.2604 31.0635 34.7095 30.9395 35.097 30.724V31.0626H36.4185V28.4893H36.4174C36.3959 27.1089 35.2222 25.9922 33.7816 25.9922Z" fill="#EB3223"/>
<path d="M55.6787 26.0152H54.1179V24.692L52.7434 25.0463V26.0152H51.2468L51.267 26.0478C51.6506 26.3871 51.9503 26.8126 52.1322 27.2924H52.7434V31.0635H54.1179V27.2924H54.7256C54.8813 26.885 55.1247 26.5221 55.4563 26.2076C55.5281 26.1394 55.6024 26.0757 55.6787 26.0152Z" fill="#EB3223"/>
<path d="M39.1004 29.1478L37.8644 25.9921H36.4185L38.3276 30.9737L37.6373 32.8784H39.098L41.7752 25.9921H40.3291L39.1004 29.1478Z" fill="#EB3223"/>
<path d="M28.0459 19.554L28.7431 21.2967H27.3485L28.0459 19.554ZM26.2451 23.0851C26.4319 23.1539 26.6409 23.0647 26.7126 22.8855L27.0701 21.9924H29.0215L29.3789 22.8855C29.4342 23.0236 29.5712 23.1084 29.7165 23.1084C29.7598 23.1084 29.8036 23.101 29.8465 23.0851C30.0328 23.0161 30.1258 22.815 30.0541 22.6356L28.6318 19.0817C28.5377 18.8466 28.3077 18.6946 28.0459 18.6946C27.7838 18.6946 27.5538 18.8466 27.4597 19.0816L26.0374 22.6356C25.9657 22.815 26.0587 23.0161 26.2451 23.0851Z" fill="#EB3223"/>
<path d="M38.8657 23.1084H38.8667C39.0671 23.1079 39.2291 22.9512 39.2286 22.7586L39.2182 18.9902C39.2176 18.7978 39.0553 18.6422 38.8553 18.6422H38.8544C38.6539 18.6428 38.4919 18.7993 38.4924 18.992L38.5029 22.7604C38.5034 22.9528 38.6657 23.1084 38.8657 23.1084Z" fill="#EB3223"/>
<path d="M31.434 22.9892L32.3315 22.0172L33.3717 23.0062C33.4426 23.0743 33.5355 23.1084 33.6284 23.1084C33.7212 23.1084 33.8141 23.0743 33.885 23.0062C34.0266 22.8699 34.0266 22.649 33.885 22.5128L32.8205 21.5009C32.8184 21.4988 32.816 21.497 32.8138 21.495L33.9014 20.317C34.0334 20.172 34.0181 19.9515 33.8673 19.8247C33.7165 19.6977 33.4872 19.7124 33.3553 19.8575L31.5238 21.8308V18.9911C31.5238 18.7984 31.3613 18.6422 31.161 18.6422C30.9606 18.6422 30.7981 18.7984 30.7981 18.9911V22.7595C30.7981 22.9048 30.8919 23.035 31.0333 23.0861C31.0749 23.1011 31.1181 23.1084 31.1609 23.1084C31.2635 23.1084 31.3638 23.0664 31.434 22.9892Z" fill="#EB3223"/>
<path d="M36.2471 23.1084C37.0908 23.1084 37.7772 22.4484 37.7772 21.6371V20.1077C37.7772 19.915 37.6147 19.7588 37.4142 19.7588C37.2139 19.7588 37.0514 19.915 37.0514 20.1077V21.6371C37.0514 22.0636 36.6906 22.4105 36.2471 22.4105C35.8036 22.4105 35.4428 22.0636 35.4428 21.6371V20.1077C35.4428 19.915 35.2803 19.7588 35.0799 19.7588C34.8795 19.7588 34.717 19.915 34.717 20.1077V21.6371C34.717 22.4484 35.4034 23.1084 36.2471 23.1084Z" fill="#EB3223"/>
<path d="M41.6838 20.4566C42.2441 20.4566 42.6998 20.8949 42.6998 21.4336C42.6998 21.9723 42.2441 22.4105 41.6838 22.4105C41.1236 22.4105 40.6678 21.9723 40.6678 21.4336C40.6678 20.8949 41.1236 20.4566 41.6838 20.4566ZM41.6838 23.1084C42.0639 23.1084 42.4153 22.991 42.7015 22.7924C42.7188 22.9696 42.8738 23.1084 43.0627 23.1084C43.2631 23.1084 43.4256 22.9521 43.4256 22.7595V21.473C43.4256 21.4686 43.425 21.4643 43.4249 21.4599C43.425 21.451 43.4256 21.4424 43.4256 21.4336C43.4256 20.5086 42.6458 19.7588 41.6838 19.7588C40.7219 19.7588 39.9421 20.5086 39.9421 21.4336C39.9421 22.3586 40.7219 23.1084 41.6838 23.1084Z" fill="#EB3223"/>
<path d="M44.3866 23.0861C44.4282 23.1011 44.4713 23.1084 44.5141 23.1084C44.6167 23.1084 44.717 23.0664 44.7872 22.9892L45.6847 22.0172L46.725 23.0062C46.7958 23.0743 46.8887 23.1084 46.9816 23.1084C47.0744 23.1084 47.1673 23.0743 47.2382 23.0062C47.3798 22.8699 47.3798 22.649 47.2382 22.5128L46.1738 21.5009C46.1716 21.4988 46.1692 21.497 46.167 21.495L47.2546 20.317C47.3866 20.172 47.3713 19.9515 47.2205 19.8247C47.0698 19.6977 46.8405 19.7124 46.7086 19.8575L44.877 21.8308V18.9911C44.877 18.7984 44.7146 18.6422 44.5142 18.6422C44.3138 18.6422 44.1514 18.7984 44.1514 18.9911V22.7595C44.1514 22.9048 44.2451 23.035 44.3866 23.0861Z" fill="#EB3223"/>
<path d="M49.6001 23.1084C50.4438 23.1084 51.1302 22.4484 51.1302 21.6371V20.1077C51.1302 19.915 50.9677 19.7588 50.7673 19.7588C50.5669 19.7588 50.4045 19.915 50.4045 20.1077V21.6371C50.4045 22.0636 50.0437 22.4105 49.6001 22.4105C49.1566 22.4105 48.7957 22.0636 48.7957 21.6371V20.1077C48.7957 19.915 48.6333 19.7588 48.4329 19.7588C48.2325 19.7588 48.0701 19.915 48.0701 20.1077V21.6371C48.0701 22.4484 48.7565 23.1084 49.6001 23.1084Z" fill="#EB3223"/>
<path d="M57.8652 27.2666C58.4036 27.2666 58.8656 27.5787 59.0679 28.0247H56.6625C56.8648 27.5787 57.3269 27.2666 57.8652 27.2666ZM57.8652 25.9931C57.1024 25.9931 56.4595 26.2361 55.9542 26.7153C55.4543 27.1895 55.2009 27.7995 55.2009 28.5282C55.2009 29.2572 55.4544 29.8671 55.9541 30.3411C56.4592 30.8204 57.1022 31.0635 57.8652 31.0635C58.4466 31.0635 58.9667 30.9158 59.4123 30.6236C59.8506 30.3317 60.1686 29.9373 60.3575 29.4513L60.382 29.3884H58.8234C58.8229 29.3888 58.8225 29.3891 58.8221 29.3895C58.8024 29.4098 58.782 29.4294 58.761 29.4484C58.7424 29.4656 58.7235 29.4823 58.7042 29.498C58.6998 29.5014 58.6954 29.5047 58.6911 29.5081C58.6622 29.5309 58.6327 29.5524 58.6019 29.5722C58.5957 29.5763 58.589 29.5798 58.5827 29.5839C58.5592 29.5983 58.5358 29.6129 58.5114 29.6255C58.3205 29.7297 58.1003 29.7899 57.8652 29.7899C57.3269 29.7899 56.8648 29.4779 56.6625 29.0318H59.066H60.4791L60.4898 28.9612C60.5165 28.7876 60.5295 28.646 60.5295 28.5282C60.5295 27.799 60.2725 27.1888 59.7679 26.7164C59.2688 26.2365 58.6285 25.9931 57.8652 25.9931Z" fill="#EB3223"/>
<path d="M63.7072 25.9931C63.2645 25.9931 62.8475 26.1007 62.4827 26.29V25.9931H61.1082V31.0635H62.4827V28.4688C62.4892 27.8313 63.0247 27.3141 63.6864 27.3034H63.9706V26.0059C63.8834 25.9974 63.7947 25.9931 63.7072 25.9931Z" fill="#EB3223"/>
</g>
<defs>
<clipPath id="clip0_7942_21680">
<rect width="58" height="16" fill="white" transform="translate(6 17)"/>
</clipPath>
</defs>
</svg>
