<svg width="70" height="49" viewBox="0 0 70 49" fill="none" xmlns="http://www.w3.org/2000/svg">
<path d="M0.5 3C0.5 1.61929 1.61929 0.5 3 0.5H67C68.3807 0.5 69.5 1.61929 69.5 3V46C69.5 47.3807 68.3807 48.5 67 48.5H3C1.61929 48.5 0.5 47.3807 0.5 46V3Z" fill="white" stroke="#E6E7E8"/>
<path d="M19 25.1391C19.1856 19.5056 21.3899 15.1036 25.8912 11.8649C27.8634 10.4508 30.0908 9.56127 32.5039 9.19634C33.5712 9.03668 34.6617 8.96826 35.729 9.01387C38.7918 9.15072 41.5993 10.063 44.1052 11.8193C47.0287 13.872 49.0473 16.5633 50.1842 19.9161C50.5555 20.9653 50.8107 22.0601 50.8803 23.1776C50.9267 23.9303 51.0195 24.7058 50.9963 25.4584C50.9267 28.1042 50.2307 30.5902 48.9081 32.9167C47.3999 35.5396 45.2885 37.5923 42.6202 39.052C41.0656 39.8959 39.3951 40.4661 37.6317 40.7626C36.4715 40.9451 35.2882 41.0591 34.1281 40.9679C32.5735 40.8767 31.0653 40.5573 29.6036 40.01C25.6359 38.5274 22.7124 35.9045 20.7866 32.2096C20.0209 30.7271 19.5105 29.1761 19.2784 27.534C19.116 26.6901 19.0696 25.8462 19 25.1391ZM44.3604 29.5639C44.3604 26.5532 44.3604 23.5198 44.3604 20.5091C44.3604 20.4863 44.3604 20.4635 44.3372 20.4407C44.314 20.1442 44.1284 19.9389 43.8964 19.7793C42.5042 18.8213 40.9728 18.502 39.3022 18.7985C38.4438 18.9582 37.6085 19.2091 36.7732 19.4827C35.2186 20.0073 33.6872 20.5775 32.1327 21.1021C31.0885 21.467 29.9748 21.5811 28.8843 21.467C27.9098 21.353 27.0049 20.9881 26.1696 20.4407C25.8216 20.2126 25.7751 20.2354 25.6591 20.646C25.6591 20.6688 25.6591 20.6916 25.6591 20.7144C25.6591 20.7372 25.6591 20.7828 25.6591 20.8056C25.6591 20.8512 25.6591 20.8968 25.6591 20.9425C25.6591 23.7935 25.6591 26.6217 25.6591 29.4727C25.6591 29.5183 25.6823 29.5639 25.6823 29.6095C25.7751 29.792 25.8216 30.0429 25.984 30.1569C26.8889 30.7955 27.933 31.1604 29.0467 31.2289C30.4389 31.3201 31.7846 31.0464 33.084 30.6131C34.6849 30.0885 36.3091 29.5411 37.9333 29.0621C39.2558 28.6744 40.6248 28.5831 41.9705 28.9253C42.6434 29.1077 43.2931 29.4498 43.9428 29.7235C44.1052 29.792 44.2676 29.9288 44.3372 29.6323C44.3372 29.6095 44.3372 29.5867 44.3604 29.5639Z" fill="#008EF0"/>
</svg>
