<?xml version="1.0" encoding="UTF-8"?>
<!DOCTYPE svg PUBLIC "-//W3C//DTD SVG 1.1//EN" "http://www.w3.org/Graphics/SVG/1.1/DTD/svg11.dtd">
<!-- Creator: CorelDRAW -->
<svg xmlns="http://www.w3.org/2000/svg" xml:space="preserve" width="8.5in" height="11in" version="1.1" style="shape-rendering:geometricPrecision; text-rendering:geometricPrecision; image-rendering:optimizeQuality; fill-rule:evenodd; clip-rule:evenodd"
viewBox="0 0 8500 11000"
 xmlns:xlink="http://www.w3.org/1999/xlink">
 <defs>
  <style type="text/css">
   <![CDATA[
    .fil0 {fill:#00ACE7;fill-rule:nonzero}
   ]]>
  </style>
 </defs>
 <g id="Layer_x0020_1">
  <metadata id="CorelCorpID_0Corel-Layer"/>
  <g id="Logo_x0020_Jenius.cdr">
   <path class="fil0" d="M1512 6230c226,-130 367,-353 367,-596 0,-540 -546,-734 -546,-734 -100,-57 -224,-87 -361,-87 -10,0 -28,0 -38,0 139,-101 320,-163 503,-163 427,0 749,391 749,757 0,426 -312,757 -674,823zm-274 -1l0 0c-277,-53 -505,-256 -603,-496 97,92 235,155 412,155 282,0 550,-209 550,-519 0,-152 -55,-251 -55,-251 117,115 192,277 192,474 0,278 -215,537 -496,637zm-248 44l0 0c-331,0 -681,-310 -681,-695 0,-189 61,-376 216,-503 -28,56 -47,122 -54,202 -4,29 -6,58 -6,90 0,416 236,761 606,900 -27,4 -54,6 -81,6zm32 -1348l0 0c241,0 427,229 427,433 0,276 -175,461 -418,461 -219,0 -414,-196 -414,-474 0,-229 177,-420 405,-420zm343 -364l0 0c-225,0 -544,93 -733,321 -298,126 -516,407 -516,715 0,477 421,761 927,761 84,0 163,-17 237,-36 55,9 112,13 170,13 478,0 900,-374 900,-864 0,-504 -416,-910 -985,-910z"/>
   <path class="fil0" d="M3139 5959c0,153 -101,240 -316,247l0 233c244,0 554,-128 554,-480l0 -1145 -238 0 0 1145z"/>
   <path class="fil0" d="M3821 5285c16,-142 79,-268 235,-268 157,0 220,126 236,268l-471 0zm719 22l0 0c0,-182 -103,-515 -484,-515 -360,0 -484,292 -484,595 0,303 126,595 540,595 113,0 256,-26 419,-138l-121 -182c-103,63 -201,95 -298,95 -183,0 -269,-121 -289,-246l500 0c148,0 217,-57 217,-204z"/>
   <path class="fil0" d="M5186 4792c-296,0 -448,236 -448,236l0 941 238 0 0 -865c0,0 73,-87 210,-87 150,0 233,119 233,225l0 727 238 0 0 -727c0,-218 -160,-450 -471,-450z"/>
   <polygon class="fil0" points="5920,5969 6157,5969 6157,4805 5920,4805 "/>
   <path class="fil0" d="M7954 5264l2 0c-81,-22 -186,-60 -186,-141 0,-58 63,-106 181,-106 119,0 254,52 305,76l76 -206c-78,-39 -237,-95 -381,-95 -206,0 -421,102 -421,331 0,212 193,318 383,364 104,21 233,63 233,145 0,86 -105,125 -208,125 -101,0 -240,-63 -345,-117l-92 215c101,49 249,123 437,127 217,0 446,-99 446,-350 0,-243 -251,-325 -430,-368z"/>
   <path class="fil0" d="M7109 5532c0,106 -83,224 -232,225 -149,-1 -232,-119 -232,-225l0 -727 -237 0 0 727c0,218 158,449 468,450l2 0c310,-1 468,-232 468,-450l0 -727 -237 0 0 727z"/>
  </g>
 </g>
</svg>
