<svg width="68" height="48" viewBox="0 0 68 48" fill="none" xmlns="http://www.w3.org/2000/svg">
<path d="M0.449219 3C0.449219 1.48122 1.68044 0.25 3.19922 0.25H64.3992C65.918 0.25 67.1492 1.48122 67.1492 3V45C67.1492 46.5188 65.918 47.75 64.3992 47.75H3.19922C1.68044 47.75 0.449219 46.5188 0.449219 45V3Z" fill="white" stroke="#ECECEC" stroke-width="0.5"/>
<path fill-rule="evenodd" clip-rule="evenodd" d="M23.5215 38.8162V29.6015C23.5215 29.4107 23.6766 29.2559 23.8676 29.2559H26.9833C28.7375 29.2788 30.1644 30.705 30.1644 32.4356C30.1644 34.1662 28.7369 35.5929 26.9821 35.6153H24.7279V38.8162C24.7279 39.007 24.5728 39.1619 24.3818 39.1619H23.8676C23.6766 39.1619 23.5215 39.007 23.5215 38.8162ZM24.7285 34.3628H26.9697C27.4945 34.3628 27.988 34.1597 28.3595 33.7911C28.7304 33.4225 28.935 32.9326 28.935 32.412C28.935 31.3362 28.0559 30.4612 26.9756 30.4612H24.7291V34.3628H24.7285Z" fill="#EE4D2D"/>
<path fill-rule="evenodd" clip-rule="evenodd" d="M38.1064 41.9231L40.465 37.876L37.64 33.259C37.5557 33.1206 37.6553 32.9434 37.8175 32.9434H38.9614L41.2333 36.6224L43.4268 32.9434H44.4817C44.6426 32.9434 44.7423 33.1182 44.6603 33.2566L39.3447 42.2352H38.2857C38.1259 42.2352 38.0262 42.0615 38.1064 41.9231Z" fill="#EE4D2D"/>
<path fill-rule="evenodd" clip-rule="evenodd" d="M35.4552 38.7679V38.2356L35.2801 38.3816C34.7122 38.8539 33.9864 39.1135 33.2363 39.1135C31.5057 39.1135 30.0977 37.7292 30.0977 36.028C30.0977 34.3528 31.5057 32.9902 33.2363 32.9902C33.9864 32.9902 34.7122 33.2505 35.2801 33.7222L35.4552 33.8682V33.3359C35.4552 33.1451 35.6103 32.9902 35.8013 32.9902H36.5195V39.1135H35.8013C35.6103 39.1141 35.4552 38.9593 35.4552 38.7679ZM33.2281 34.1396C32.1402 34.1396 31.2551 34.9887 31.2551 36.0322C31.2551 37.0832 32.1585 37.9712 33.2281 37.9712C34.2977 37.9712 35.201 37.0832 35.201 36.0322C35.201 34.9887 34.316 34.1396 33.2281 34.1396Z" fill="#EE4D2D"/>
<path d="M42.6739 11.1798H40.8418H26.5848C26.0948 11.1798 25.6974 10.7829 25.6974 10.2936C25.6974 10.071 25.8778 9.89083 26.1007 9.89083H40.5193C40.7422 9.89083 40.9226 9.71064 40.9226 9.48806V8.03658C40.9226 7.51664 40.4763 7.10799 39.9574 7.15392L25.3465 8.44229C24.3041 8.53238 23.5039 9.40386 23.5039 10.449V13.1135V21.9755V24.4734C23.5039 25.5857 24.4067 26.4872 25.5205 26.4872H42.6739C43.7877 26.4872 44.691 25.5857 44.691 24.4734V13.1942C44.6905 12.0819 43.7877 11.1798 42.6739 11.1798Z" fill="#EE4D2D"/>
<path d="M37.7032 21.7166C37.5764 22.7553 36.9419 23.5874 35.959 24.0037C35.4118 24.2357 34.6789 24.3605 34.0975 24.321C33.1935 24.2869 32.3439 24.0684 31.5608 23.6698C31.276 23.5244 30.858 23.2382 30.5431 22.9756C30.4712 22.9161 30.4346 22.8625 30.5036 22.7653C30.5773 22.6552 30.868 22.2348 30.914 22.1653C30.9759 22.0711 31.0773 22.0664 31.1711 22.1394C31.184 22.1494 31.2784 22.2224 31.2978 22.2366C32.0514 22.8219 33.0237 23.2617 34.1034 23.303C35.4654 23.2847 36.4537 22.6788 36.63 21.7408C36.8246 20.7068 35.9985 19.82 34.4076 19.3254C33.9017 19.1681 32.6304 18.6629 32.3952 18.5263C31.2866 17.8815 30.7707 17.0354 30.8444 15.9943C30.957 14.5511 32.3055 13.47 34.0179 13.4629C34.8304 13.4611 35.5922 13.6401 36.2709 13.924C36.5209 14.0282 36.9861 14.2773 37.1524 14.4003C37.2686 14.4845 37.2592 14.5793 37.2137 14.6524C37.1459 14.7648 36.9449 15.0769 36.8641 15.207C36.8051 15.2965 36.732 15.3066 36.6276 15.2412C35.752 14.6577 34.8516 14.4604 34.0415 14.4439C32.8722 14.4669 31.9901 15.1558 31.9323 16.1009C31.917 16.9547 32.5709 17.5736 33.9583 18.0464C36.8234 18.9603 37.9089 20.0337 37.7032 21.7166Z" fill="white"/>
</svg>
