<svg width="105.00000000000001" height="50" xmlns="http://www.w3.org/2000/svg" xml:space="preserve" version="1.1">
 <g id="Layer_1">
  <title>Layer 1</title>
  <path fill="#1434CB" id="path4" d="m39.80805,8.59832l-13.7264,32.74047l-8.95545,0l-6.75481,-26.1284c-0.41009,-1.60935 -0.76667,-2.19893 -2.01388,-2.87695c-2.03627,-1.10438 -5.39893,-2.14052 -8.35751,-2.7836l0.20095,-0.95152l14.41554,0c1.8375,0 3.48935,1.22284 3.90654,3.33825l3.56743,18.9453l8.81675,-22.28409l8.90084,0l0,0.00055l0,-0.00001zm35.08896,22.05099c0.03604,-8.64123 -11.95224,-9.11726 -11.86979,-12.9774c0.02566,-1.1748 1.14455,-2.42385 3.59365,-2.74266c1.2139,-0.15886 4.55854,-0.28005 8.35205,1.46523l1.48802,-6.9429c-2.03846,-0.73971 -4.6612,-1.45158 -7.92448,-1.45158c-8.37389,0 -14.26701,4.45027 -14.3167,10.82269c-0.05406,4.7134 4.20633,7.3436 7.41609,8.90981c3.30205,1.60389 4.41001,2.63457 4.39745,4.06922c-0.02348,2.1962 -2.63367,3.16574 -5.07293,3.20395c-4.25821,0.06551 -6.72914,-1.15187 -8.6988,-2.06737l-1.53553,7.17273c1.97948,0.90785 5.63319,1.69997 9.42124,1.73982c8.90029,0 14.72242,-4.39513 14.74973,-11.20155m22.11231,10.68948l7.83547,0l-6.83945,-32.74047l-7.23207,0c-1.62618,0 -2.99789,0.94661 -3.60511,2.40201l-12.71291,30.33846l8.89592,0l1.76597,-4.89027l10.8694,0l1.02278,4.89027zm-9.45291,-11.60061l4.45916,-12.29283l2.5665,12.29283l-7.02566,0zm-35.64377,-21.13986l-7.00545,32.74047l-8.47163,0l7.00818,-32.74047l8.4689,0z" class="st0" stroke="null"/>
 </g>

</svg>